<svg xmlns="http://www.w3.org/2000/svg" version="1.1" xmlns:xlink="http://www.w3.org/1999/xlink" xmlns:svgjs="http://svgjs.dev/svgjs" viewBox="0 0 800 800"><defs><linearGradient x1="50%" y1="0%" x2="50%" y2="100%" id="ffflurry-grad" gradientTransform="rotate(270)"><stop stop-color="hsl(0, 0%, 100%)" stop-opacity="1" offset="0%"></stop><stop stop-color="#14213d" stop-opacity="1" offset="45%"></stop><stop stop-color="#ffffff" stop-opacity="1" offset="100%"></stop></linearGradient></defs><rect width="100%" height="100%" fill="hsl(0, 0%, 100%)"></rect><g fill="url(#ffflurry-grad)"><rect width="52" height="3" x="722" y="476.5" rx="1.5" transform="rotate(45, 748, 478)" opacity="0.35"></rect><rect width="276" height="3" x="344" y="130.5" rx="1.5" transform="rotate(45, 482, 132)" opacity="0.23"></rect><rect width="244" height="3" x="-67" y="294.5" rx="1.5" transform="rotate(45, 55, 296)" opacity="0.75"></rect><rect width="89" height="3" x="647.5" y="191.5" rx="1.5" transform="rotate(45, 692, 193)" opacity="0.51"></rect><rect width="361" height="3" x="181.5" y="689.5" rx="1.5" transform="rotate(45, 362, 691)" opacity="0.40"></rect><rect width="541" height="3" x="-203.5" y="656.5" rx="1.5" transform="rotate(45, 67, 658)" opacity="0.14"></rect><rect width="505" height="3" x="259.5" y="328.5" rx="1.5" transform="rotate(45, 512, 330)" opacity="0.25"></rect><rect width="354" height="3" x="-138" y="349.5" rx="1.5" transform="rotate(45, 39, 351)" opacity="0.67"></rect><rect width="591" height="3" x="14.5" y="434.5" rx="1.5" transform="rotate(45, 310, 436)" opacity="0.59"></rect><rect width="137" height="3" x="65.5" y="194.5" rx="1.5" transform="rotate(45, 134, 196)" opacity="0.69"></rect><rect width="127" height="3" x="-43.5" y="262.5" rx="1.5" transform="rotate(45, 20, 264)" opacity="0.85"></rect><rect width="601" height="3" x="118.5" y="407.5" rx="1.5" transform="rotate(45, 419, 409)" opacity="0.47"></rect><rect width="602" height="3" x="3" y="130.5" rx="1.5" transform="rotate(45, 304, 132)" opacity="0.96"></rect><rect width="212" height="3" x="528" y="232.5" rx="1.5" transform="rotate(45, 634, 234)" opacity="0.52"></rect><rect width="480" height="3" x="355" y="404.5" rx="1.5" transform="rotate(45, 595, 406)" opacity="0.85"></rect><rect width="37" height="3" x="153.5" y="602.5" rx="1.5" transform="rotate(45, 172, 604)" opacity="0.37"></rect><rect width="511" height="3" x="77.5" y="528.5" rx="1.5" transform="rotate(45, 333, 530)" opacity="0.18"></rect><rect width="94" height="3" x="-5" y="84.5" rx="1.5" transform="rotate(45, 42, 86)" opacity="0.33"></rect><rect width="397" height="3" x="-142.5" y="480.5" rx="1.5" transform="rotate(45, 56, 482)" opacity="0.19"></rect><rect width="76" height="3" x="133" y="366.5" rx="1.5" transform="rotate(45, 171, 368)" opacity="0.69"></rect><rect width="258" height="3" x="621" y="653.5" rx="1.5" transform="rotate(45, 750, 655)" opacity="0.33"></rect><rect width="365" height="3" x="534.5" y="746.5" rx="1.5" transform="rotate(45, 717, 748)" opacity="0.36"></rect><rect width="196" height="3" x="582" y="408.5" rx="1.5" transform="rotate(45, 680, 410)" opacity="0.31"></rect><rect width="489" height="3" x="393.5" y="494.5" rx="1.5" transform="rotate(45, 638, 496)" opacity="0.47"></rect><rect width="243" height="3" x="112.5" y="427.5" rx="1.5" transform="rotate(45, 234, 429)" opacity="0.85"></rect><rect width="549" height="3" x="-128.5" y="530.5" rx="1.5" transform="rotate(45, 146, 532)" opacity="0.30"></rect><rect width="361" height="3" x="583.5" y="390.5" rx="1.5" transform="rotate(45, 764, 392)" opacity="0.54"></rect><rect width="491" height="3" x="370.5" y="150.5" rx="1.5" transform="rotate(45, 616, 152)" opacity="0.70"></rect><rect width="145" height="3" x="640.5" y="258.5" rx="1.5" transform="rotate(45, 713, 260)" opacity="0.78"></rect><rect width="211" height="3" x="374.5" y="541.5" rx="1.5" transform="rotate(45, 480, 543)" opacity="0.26"></rect><rect width="571" height="3" x="313.5" y="303.5" rx="1.5" transform="rotate(45, 599, 305)" opacity="0.63"></rect><rect width="271" height="3" x="-29.5" y="29.5" rx="1.5" transform="rotate(45, 106, 31)" opacity="0.80"></rect><rect width="640" height="3" x="74" y="155.5" rx="1.5" transform="rotate(45, 394, 157)" opacity="0.64"></rect><rect width="263" height="3" x="635.5" y="204.5" rx="1.5" transform="rotate(45, 767, 206)" opacity="0.36"></rect><rect width="299" height="3" x="510.5" y="80.5" rx="1.5" transform="rotate(45, 660, 82)" opacity="0.53"></rect><rect width="124" height="3" x="468" y="620.5" rx="1.5" transform="rotate(45, 530, 622)" opacity="0.37"></rect><rect width="482" height="3" x="495" y="560.5" rx="1.5" transform="rotate(45, 736, 562)" opacity="0.34"></rect><rect width="261" height="3" x="250.5" y="331.5" rx="1.5" transform="rotate(45, 381, 333)" opacity="0.66"></rect><rect width="707" height="3" x="-279.5" y="750.5" rx="1.5" transform="rotate(45, 74, 752)" opacity="0.67"></rect><rect width="211" height="3" x="449.5" y="511.5" rx="1.5" transform="rotate(45, 555, 513)" opacity="0.20"></rect><rect width="592" height="3" x="-47" y="40.5" rx="1.5" transform="rotate(45, 249, 42)" opacity="0.77"></rect><rect width="459" height="3" x="-67.5" y="298.5" rx="1.5" transform="rotate(45, 162, 300)" opacity="0.49"></rect><rect width="516" height="3" x="-214" y="183.5" rx="1.5" transform="rotate(45, 44, 185)" opacity="0.86"></rect><rect width="657" height="3" x="-57.5" y="335.5" rx="1.5" transform="rotate(45, 271, 337)" opacity="0.91"></rect><rect width="80" height="3" x="616" y="23.5" rx="1.5" transform="rotate(45, 656, 25)" opacity="0.53"></rect><rect width="646" height="3" x="110" y="241.5" rx="1.5" transform="rotate(45, 433, 243)" opacity="0.45"></rect><rect width="107" height="3" x="269.5" y="259.5" rx="1.5" transform="rotate(45, 323, 261)" opacity="0.11"></rect><rect width="311" height="3" x="2.5" y="449.5" rx="1.5" transform="rotate(45, 158, 451)" opacity="0.79"></rect><rect width="38" height="3" x="79" y="271.5" rx="1.5" transform="rotate(45, 98, 273)" opacity="0.19"></rect><rect width="135" height="3" x="149.5" y="139.5" rx="1.5" transform="rotate(45, 217, 141)" opacity="0.07"></rect><rect width="105" height="3" x="407.5" y="733.5" rx="1.5" transform="rotate(45, 460, 735)" opacity="0.36"></rect><rect width="465" height="3" x="131.5" y="54.5" rx="1.5" transform="rotate(45, 364, 56)" opacity="0.93"></rect><rect width="522" height="3" x="308" y="761.5" rx="1.5" transform="rotate(45, 569, 763)" opacity="0.93"></rect><rect width="132" height="3" x="183" y="539.5" rx="1.5" transform="rotate(45, 249, 541)" opacity="0.42"></rect><rect width="48" height="3" x="389" y="617.5" rx="1.5" transform="rotate(45, 413, 619)" opacity="0.52"></rect><rect width="553" height="3" x="-62.5" y="756.5" rx="1.5" transform="rotate(45, 214, 758)" opacity="0.16"></rect><rect width="89" height="3" x="494.5" y="215.5" rx="1.5" transform="rotate(45, 539, 217)" opacity="0.56"></rect><rect width="429" height="3" x="-147.5" y="402.5" rx="1.5" transform="rotate(45, 67, 404)" opacity="0.28"></rect><rect width="105" height="3" x="226.5" y="638.5" rx="1.5" transform="rotate(45, 279, 640)" opacity="0.35"></rect><rect width="625" height="3" x="324.5" y="592.5" rx="1.5" transform="rotate(45, 637, 594)" opacity="0.68"></rect><rect width="68" height="3" x="150" y="682.5" rx="1.5" transform="rotate(45, 184, 684)" opacity="0.38"></rect><rect width="201" height="3" x="404.5" y="434.5" rx="1.5" transform="rotate(45, 505, 436)" opacity="0.50"></rect><rect width="103" height="3" x="357.5" y="507.5" rx="1.5" transform="rotate(45, 409, 509)" opacity="0.55"></rect><rect width="50" height="3" x="262" y="199.5" rx="1.5" transform="rotate(45, 287, 201)" opacity="0.34"></rect><rect width="429" height="3" x="545.5" y="136.5" rx="1.5" transform="rotate(45, 760, 138)" opacity="0.81"></rect><rect width="47" height="3" x="580.5" y="684.5" rx="1.5" transform="rotate(45, 604, 686)" opacity="0.89"></rect><rect width="256" height="3" x="569" y="124.5" rx="1.5" transform="rotate(45, 697, 126)" opacity="0.79"></rect><rect width="541" height="3" x="-53.5" y="241.5" rx="1.5" transform="rotate(45, 217, 243)" opacity="0.46"></rect><rect width="323" height="3" x="-11.5" y="101.5" rx="1.5" transform="rotate(45, 150, 103)" opacity="0.52"></rect><rect width="414" height="3" x="-162" y="570.5" rx="1.5" transform="rotate(45, 45, 572)" opacity="0.78"></rect><rect width="272" height="3" x="534" y="321.5" rx="1.5" transform="rotate(45, 670, 323)" opacity="0.73"></rect><rect width="217" height="3" x="216.5" y="759.5" rx="1.5" transform="rotate(45, 325, 761)" opacity="0.86"></rect><rect width="285" height="3" x="326.5" y="35.5" rx="1.5" transform="rotate(45, 469, 37)" opacity="0.35"></rect><rect width="555" height="3" x="285.5" y="69.5" rx="1.5" transform="rotate(45, 563, 71)" opacity="0.67"></rect><rect width="418" height="3" x="549" y="48.5" rx="1.5" transform="rotate(45, 758, 50)" opacity="0.91"></rect><rect width="143" height="3" x="669.5" y="329.5" rx="1.5" transform="rotate(45, 741, 331)" opacity="0.41"></rect><rect width="204" height="3" x="673" y="277.5" rx="1.5" transform="rotate(45, 775, 279)" opacity="0.30"></rect></g></svg>