<svg version="1.0" xmlns="http://www.w3.org/2000/svg" width="1216.000000pt" height="832.000000pt" viewBox="0 0 1216.000000 832.000000" preserveAspectRatio="xMidYMid meet">

<g transform="translate(0.000000,832.000000) scale(0.100000,-0.100000)" fill="#ffffff" stroke="none">
<path d="M800 6863 c-79 -13 -186 -50 -265 -91 -71 -37 -109 -66 -180 -137 -139 -138 -191 -264 -166 -403 8 -48 9 -77 1 -102 -15 -50 -4 -100 39 -172 20 -35 56 -96 80 -136 52 -89 106 -131 216 -169 72 -25 93 -28 220 -28 77 0 159 2 183 5 l43 5 29 -85 c30 -91 157 -432 192 -515 11 -27 40 -88 64 -134 24 -46 44 -90 44 -97 0 -7 -31 -35 -69 -63 -150 -112 -268 -263 -338 -435 -44 -109 -43 -149 7 -294 43 -125 73 -183 114 -221 17 -16 26 -35 26 -55 0 -72 79 -170 175 -216 74 -37 161 -50 331 -50 98 0 141 -4 170 -16 54 -23 148 -13 257 26 95 35 152 74 189 132 14 22 42 46 73 61 71 35 247 169 288 219 90 110 117 208 79 286 -13 25 -17 51 -14 79 5 50 -16 128 -71 253 -75 174 -150 261 -281 325 -125 61 -207 77 -403 77 -152 -1 -172 1 -176 16 -3 9 -25 62 -49 117 -25 55 -57 138 -73 185 -38 117 -101 270 -175 425 -59 123 -61 130 -44 143 185 128 255 196 301 290 32 64 39 88 42 154 2 63 -1 85 -18 121 -11 24 -28 65 -36 93 -27 88 -55 127 -113 155 -41 20 -60 37 -79 70 -80 142 -199 190 -461 188 -70 -1 -138 -4 -152 -6z m338 -52 c101 -21 150 -46 184 -94 21 -29 21 -30 2 -23 -62 25 -164 38 -251 32 -193 -13 -321 -50 -478 -140 -141 -80 -232 -169 -311 -304 l-38 -65 -9 34 c-11 43 -5 88 25 169 34 95 51 121 119 189 179 179 478 259 757 202z m185 -197 c139 -37 171 -56 195 -112 28 -66 45 -122 39 -128 -3 -3 -18 1 -34 9 -73 38 -153 49 -308 44 -286 -10 -499 -99 -686 -288 -92 -93 -130 -163 -138 -258 l-6 -66 -47 86 c-80 145 -84 207 -20 321 96 173 294 327 482 377 71 18 172 37 250 45 66 7 182 -6 273 -30z m92 -249 c107 -30 186 -105 166 -157 -8 -18 -10 -19 -10 -5 -1 30 -98 114 -155 134 -64 23 -249 23 -351 0 -241 -52 -433 -187 -523 -367 -35 -71 -37 -155 -4 -217 25 -48 16 -54 -29 -22 -47 33 -62 73 -56 145 14 183 243 387 532 473 122 37 327 44 430 16z m5 -60 l35 -14 -40 7 c-22 4 -87 6 -145 6 -85 -1 -121 -7 -190 -29 -272 -88 -510 -292 -510 -436 0 -29 7 -43 30 -63 44 -36 96 -47 221 -47 97 1 110 -1 119 -19 5 -10 6 -21 1 -24 -20 -13 -191 -25 -233 -17 -93 17 -165 108 -155 197 13 120 138 268 294 347 78 40 214 85 303 100 61 10 237 5 270 -8z m16 -59 c118 -36 132 -137 36 -255 -66 -82 -176 -161 -196 -141 -12 12 -13 10 57 96 92 114 84 188 -28 247 -63 33 -185 30 -295 -7 -120 -41 -195 -80 -251 -133 -52 -48 -95 -124 -85 -149 8 -21 25 -8 42 32 38 90 156 168 331 220 108 31 188 29 254 -7 73 -40 77 -94 14 -164 -20 -22 -31 -30 -25 -18 33 70 -17 145 -106 159 -147 22 -340 -71 -388 -188 -33 -78 -13 -119 72 -147 50 -17 52 -19 27 -25 -58 -15 -163 -8 -212 14 -56 25 -63 33 -63 81 0 46 61 140 128 200 92 80 264 161 417 195 72 16 199 11 271 -10z m-234 -167 c39 -10 57 -41 44 -74 -9 -25 -21 -17 -40 24 -20 46 -40 55 -99 46 -86 -15 -150 -47 -203 -101 -47 -48 -51 -50 -51 -28 0 16 12 35 34 53 89 74 220 107 315 80z m-5 -176 c28 -60 87 -205 132 -323 134 -350 142 -370 196 -480 76 -152 75 -145 11 -146 -55 -1 -102 -21 -113 -50 -9 -25 3 -26 45 -5 43 22 122 32 120 16 0 -5 -26 -17 -57 -26 -31 -8 -82 -27 -114 -42 l-58 -26 -30 67 c-54 116 -120 282 -164 412 -24 69 -84 235 -134 369 -50 135 -91 253 -91 263 0 33 93 77 166 78 l41 0 50 -107z m-338 -37 c15 -17 15 -18 -4 -15 -14 3 -21 13 -22 34 -1 17 0 23 4 15 3 -8 13 -23 22 -34z m1211 -1021 c41 -9 112 -34 156 -55 77 -35 85 -42 131 -111 52 -77 97 -159 88 -159 -3 0 -28 11 -55 25 -155 79 -439 77 -691 -5 -223 -72 -463 -224 -599 -379 -66 -76 -73 -86 -104 -146 l-24 -48 -33 101 -33 100 33 84 c84 217 210 377 381 482 98 61 212 104 319 121 112 19 331 13 431 -10z m187 -302 c13 -5 -29 -9 -105 -9 -130 -2 -201 -16 -210 -43 -4 -11 1 -12 19 -7 57 16 236 18 326 3 128 -21 196 -54 223 -106 11 -23 16 -41 11 -41 -5 0 -31 13 -58 29 -95 59 -163 75 -318 75 -155 0 -269 -21 -473 -89 -316 -106 -531 -277 -597 -476 -9 -27 -20 -47 -25 -44 -4 3 -17 20 -28 39 l-20 34 46 83 c64 114 175 223 332 328 68 45 156 98 195 116 106 51 276 105 363 115 86 10 286 5 319 -7z m98 -168 c50 -17 169 -85 162 -92 -2 -2 -29 8 -59 22 -30 14 -82 30 -114 36 -128 24 -423 -13 -584 -74 -287 -108 -544 -336 -616 -547 l-22 -65 -16 38 c-20 46 -12 85 35 166 88 154 382 384 589 462 54 21 216 63 275 72 73 12 300 0 350 -18z m49 -109 c152 -55 199 -142 133 -247 l-21 -34 -6 42 c-24 168 -368 212 -721 93 -283 -95 -533 -318 -564 -501 -8 -45 -17 -49 -33 -14 -58 128 110 364 364 514 132 77 305 139 451 160 32 5 120 9 195 10 121 1 145 -2 202 -23z m-945 -53 c-80 -54 -210 -157 -240 -189 -15 -16 -43 -51 -63 -77 -20 -27 -36 -44 -36 -39 0 13 50 79 109 144 47 51 250 198 274 198 5 0 -15 -16 -44 -37z m691 -73 c-165 -12 -259 -42 -465 -147 -69 -36 -168 -103 -180 -123 -11 -17 31 -11 56 9 76 60 312 168 444 203 117 32 339 33 407 2 65 -31 68 -49 19 -148 -29 -59 -53 -93 -83 -118 -60 -48 -78 -56 -47 -22 63 72 55 135 -22 174 -37 20 -55 22 -149 18 -59 -2 -113 -8 -121 -15 -8 -6 -68 -25 -133 -43 -151 -39 -253 -87 -318 -147 -77 -73 -105 -143 -77 -194 15 -28 29 -14 29 30 0 105 148 223 338 267 134 32 339 0 357 -55 3 -12 3 -36 -1 -54 -6 -29 -7 -30 -15 -10 -4 11 -29 36 -56 55 -43 29 -56 33 -128 36 -216 10 -421 -111 -428 -252 -1 -17 2 -41 6 -53 8 -22 6 -23 -52 -23 -75 0 -101 20 -101 78 0 36 26 102 52 132 57 65 199 151 342 204 110 42 252 66 383 66 104 0 124 -3 170 -25 56 -26 78 -18 47 16 -41 46 -208 64 -369 39 -157 -24 -378 -105 -499 -183 -11 -6 -44 -27 -73 -45 -122 -75 -190 -193 -153 -263 15 -26 -9 -26 -44 2 -35 27 -34 67 3 144 82 172 326 337 616 417 95 26 165 36 265 35 l85 0 -105 -7z m107 -207 c53 -25 60 -50 29 -109 -19 -38 -25 -44 -26 -26 -1 74 -74 122 -195 131 -73 5 -76 6 -35 12 93 13 191 9 227 -8z m-179 -132 c10 -5 24 -17 31 -25 11 -13 9 -14 -21 -6 -70 21 -109 13 -283 -53 -37 -14 -40 -14 -53 4 -11 15 -17 17 -35 8 -22 -10 -22 -10 -2 6 32 26 117 68 155 76 45 10 183 3 208 -10z m-57 -81 c46 -25 14 -88 -71 -139 -61 -37 -179 -23 -186 21 -4 28 73 86 141 108 70 22 89 24 116 10z m99 -40 c0 -4 -10 -22 -23 -41 -20 -31 -107 -89 -132 -89 -5 0 13 13 40 28 60 32 101 100 84 136 -9 19 -8 18 10 -3 12 -13 21 -27 21 -31z m-714 -9 c-20 -38 -20 -90 0 -119 13 -19 13 -22 0 -22 -20 0 -46 39 -46 69 0 13 12 44 26 68 29 49 45 53 20 4z m331 -9 c-10 -10 -17 -31 -17 -46 0 -55 31 -84 105 -97 31 -5 22 -7 -42 -8 -71 -1 -86 2 -103 19 -31 31 -25 65 21 115 23 25 44 43 47 40 3 -3 -2 -13 -11 -23z" fill="#ffffff"/>
<path d="M1880 4659 c-133 -14 -382 -96 -401 -131 -14 -26 11 -23 76 6 227 105 530 126 773 54 40 -11 75 -18 79 -15 24 25 -104 68 -257 87 -94 11 -159 11 -270 -1z" fill="#ffffff"/>
<path d="M1041 4202 c-28 -26 -51 -56 -51 -66 0 -11 4 -15 13 -10 26 16 127 106 127 115 0 23 -43 4 -89 -39z" fill="#ffffff"/>
<path d="M2104 3872 c8 -14 96 -73 96 -65 -1 18 -20 36 -59 54 -23 10 -40 15 -37 11z" fill="#ffffff"/>
<path d="M10666 4069 c-349 -51 -602 -261 -623 -519 -10 -125 31 -277 112 -410 l36 -59 -47 -47 c-111 -115 -203 -298 -240 -477 -24 -122 -15 -325 20 -429 29 -88 96 -189 190 -286 78 -81 184 -167 216 -177 14 -4 55 -27 92 -51 144 -94 247 -133 425 -159 238 -35 524 -6 679 70 125 61 272 216 339 356 128 269 123 604 -12 873 -41 82 -102 179 -114 184 -5 2 10 29 34 60 62 82 93 139 123 228 23 67 27 96 26 193 l0 114 -43 86 c-107 214 -394 387 -738 445 -103 17 -371 20 -475 5z m423 -64 c240 -39 536 -154 637 -247 56 -51 79 -89 108 -176 48 -139 43 -288 -13 -408 -28 -60 -100 -174 -144 -226 l-22 -27 -88 80 c-77 71 -104 109 -79 109 15 0 105 133 124 183 31 81 18 176 -36 257 -31 48 -152 110 -268 140 -154 38 -581 61 -693 37 -196 -43 -285 -126 -285 -266 0 -73 13 -111 62 -185 21 -32 37 -60 36 -61 -37 -22 -138 -98 -152 -114 -34 -38 3 -23 83 32 42 29 83 57 91 61 27 14 -67 -63 -120 -99 -49 -33 -54 -34 -71 -19 -30 27 -96 145 -120 214 -65 192 -15 425 122 562 77 77 179 122 353 153 101 19 361 18 475 0z m61 -339 c121 -19 305 -78 350 -111 47 -35 70 -74 77 -133 8 -73 -2 -111 -53 -190 l-45 -71 -107 54 c-201 101 -367 137 -536 116 -103 -12 -203 -36 -266 -63 -42 -18 -44 -21 -26 -33 14 -10 25 -11 45 -3 69 28 176 49 276 54 97 6 122 3 217 -19 58 -15 153 -45 210 -67 56 -23 114 -46 127 -51 23 -9 23 -10 6 -23 -13 -9 -16 -20 -12 -38 8 -32 202 -218 227 -218 9 0 29 9 43 20 14 11 28 20 31 20 11 0 114 -216 140 -293 31 -92 56 -228 56 -304 0 -113 -53 -303 -127 -453 -39 -78 -62 -110 -133 -181 -71 -72 -96 -90 -154 -113 -184 -72 -538 -88 -731 -31 -109 31 -319 134 -389 189 -28 22 -53 40 -56 40 -8 -1 -70 47 -127 100 -55 51 -157 186 -192 254 -30 59 -51 153 -51 230 0 149 38 330 95 450 43 91 154 254 169 249 6 -3 10 -9 9 -15 -1 -5 6 -17 17 -27 22 -20 33 -15 120 48 100 73 160 129 160 149 0 10 -20 40 -45 67 -82 88 -107 190 -65 276 36 76 64 96 171 125 66 18 96 20 274 16 110 -2 243 -11 295 -20z" fill="#ffffff"/>
<path d="M10890 2619 c-188 -20 -362 -127 -417 -257 -32 -77 -12 -194 49 -282 75 -109 289 -240 288 -176 0 6 -27 24 -59 39 -128 62 -236 197 -248 310 -7 69 21 129 91 195 64 61 114 87 213 113 94 24 305 26 367 4 22 -8 43 -12 48 -9 16 10 7 35 -17 44 -21 8 -217 32 -234 29 -3 -1 -40 -5 -81 -10z" fill="#ffffff"/>
</g>
</svg>