<svg version="1.0" xmlns="http://www.w3.org/2000/svg" width="1216.000000pt" height="832.000000pt" viewBox="0 0 1216.000000 832.000000" preserveAspectRatio="xMidYMid meet">

<g transform="translate(0.000000,832.000000) scale(0.100000,-0.100000)" fill="#ffffff" stroke="none">
<path d="M10003 6894 c-223 -24 -445 -91 -608 -184 -103 -60 -250 -182 -325 -272 -79 -96 -162 -262 -195 -393 -50 -199 -57 -482 -15 -653 82 -337 252 -577 551 -778 123 -82 234 -134 417 -194 259 -85 321 -95 592 -95 200 1 254 4 364 24 147 26 341 90 439 144 99 56 90 62 -17 12 -156 -72 -273 -103 -488 -130 -249 -31 -473 -16 -758 50 -158 36 -245 69 -388 145 -304 163 -517 388 -617 654 -31 82 -29 104 4 44 13 -24 45 -74 71 -113 26 -38 56 -88 67 -110 34 -65 117 -164 216 -255 83 -77 153 -130 171 -130 24 0 -7 37 -83 99 -82 66 -173 158 -261 264 -19 23 16 -6 78 -64 127 -121 237 -199 380 -269 307 -153 744 -221 1113 -176 142 18 204 34 383 96 231 81 414 208 548 380 41 52 34 25 -17 -64 -49 -86 -49 -86 -37 -86 8 0 70 91 110 162 30 54 116 299 138 393 24 106 24 282 0 389 -63 275 -247 548 -511 757 -259 205 -592 330 -954 358 -164 13 -211 13 -368 -5z m492 -24 c245 -36 466 -121 685 -265 307 -202 525 -484 607 -787 13 -46 17 -100 17 -203 0 -119 -4 -154 -27 -238 -62 -229 -183 -402 -388 -555 -115 -87 -336 -179 -548 -229 -86 -20 -142 -26 -296 -30 -370 -11 -682 53 -944 193 -297 158 -502 362 -623 622 -166 353 -94 798 176 1089 121 131 336 267 531 336 83 29 255 64 380 77 102 10 326 5 430 -10z" fill="#ffffff"/>
<path d="M10080 6704 c-205 -25 -436 -107 -555 -197 -124 -94 -254 -246 -317 -372 -101 -199 -96 -461 14 -679 71 -141 188 -283 302 -364 64 -46 57 -29 -14 36 -64 58 -167 184 -216 267 -27 45 -60 123 -94 225 -19 57 -24 210 -10 286 50 269 238 517 478 630 196 92 397 130 637 120 259 -10 421 -54 624 -168 272 -153 427 -308 533 -535 75 -161 86 -317 34 -496 -51 -174 -179 -356 -309 -439 -27 -18 -45 -34 -39 -36 17 -5 77 33 146 92 270 233 354 608 206 924 -131 279 -445 538 -785 645 -156 49 -221 59 -415 62 -102 2 -201 1 -220 -1z" fill="#ffffff"/>
<path d="M10651 6462 c-101 -51 -98 -181 5 -239 81 -46 186 -38 240 18 39 40 44 111 12 158 -50 73 -177 105 -257 63z m166 -61 c77 -35 89 -101 26 -151 -23 -18 -37 -21 -86 -18 -62 5 -102 27 -127 71 -13 24 -13 30 0 55 18 32 73 62 115 62 17 0 49 -9 72 -19z" fill="#ffffff"/>
<path d="M9545 6256 c-22 -9 -57 -33 -77 -55 -36 -38 -38 -44 -38 -102 0 -61 1 -64 43 -104 129 -124 352 -58 349 102 -1 117 -153 204 -277 159z m144 -71 c45 -23 81 -72 81 -110 0 -62 -91 -112 -175 -96 -74 14 -115 53 -115 108 0 84 124 142 209 98z" fill="#ffffff"/>
<path d="M10215 6031 c-80 -23 -137 -62 -179 -124 -84 -125 -70 -240 45 -363 171 -180 509 -178 643 4 63 87 72 173 28 267 -86 181 -325 277 -537 216z m297 -70 c32 -12 80 -43 109 -69 113 -102 130 -235 41 -333 -151 -168 -503 -118 -602 85 -25 53 -27 144 -3 193 22 47 113 117 177 137 72 22 203 16 278 -13z" fill="#ffffff"/>
<path d="M10995 5441 c-110 -49 -136 -165 -58 -252 47 -52 105 -72 187 -67 106 6 166 67 166 166 0 52 -2 57 -47 102 -70 70 -164 89 -248 51z m162 -67 c66 -32 100 -104 72 -156 -13 -23 -83 -57 -120 -58 -40 0 -114 29 -138 53 -33 36 -36 76 -9 117 13 19 35 40 48 47 35 18 106 16 147 -3z" fill="#ffffff"/>
<path d="M9770 5299 c-134 -53 -132 -236 2 -303 138 -69 298 4 298 137 0 73 -34 124 -107 161 -36 18 -152 21 -193 5z m180 -74 c72 -37 93 -120 43 -167 -57 -52 -125 -60 -199 -23 -95 47 -99 131 -10 186 38 23 125 25 166 4z" fill="#ffffff"/>
<path d="M784 6154 c-12 -3 -32 -16 -44 -29 -20 -22 -22 -32 -20 -142 2 -179 6 -242 13 -250 4 -3 -4 -19 -18 -33 -20 -21 -25 -33 -19 -54 3 -14 11 -26 17 -26 7 0 7 -4 -1 -12 -7 -7 -12 -25 -12 -40 0 -21 -6 -31 -25 -38 -17 -7 -25 -17 -25 -34 0 -21 -6 -26 -37 -31 -78 -13 -170 -45 -195 -68 -21 -20 -28 -38 -33 -93 -7 -57 -12 -73 -36 -95 -28 -26 -29 -31 -29 -112 0 -47 5 -89 10 -92 6 -3 10 -44 10 -90 0 -77 2 -86 23 -99 32 -21 104 -33 269 -47 l147 -13 5 -41 c3 -22 10 -92 16 -155 6 -63 15 -149 20 -190 5 -41 9 -181 10 -310 0 -212 15 -514 53 -1070 9 -124 11 -275 8 -415 l-6 -220 -95 -7 c-117 -9 -276 -35 -310 -51 -23 -11 -25 -18 -28 -86 -2 -51 -8 -78 -19 -89 -13 -14 -15 -32 -10 -112 6 -84 9 -97 31 -115 21 -17 24 -30 28 -97 5 -106 14 -115 138 -128 52 -5 105 -10 118 -10 15 0 22 -6 22 -20 0 -15 7 -20 24 -20 19 0 25 -6 28 -27 2 -19 12 -32 31 -41 15 -7 27 -21 27 -32 0 -10 4 -21 9 -25 6 -3 4 -17 -5 -33 -20 -38 -18 -51 10 -61 23 -9 24 -14 30 -153 10 -205 16 -290 22 -311 8 -26 45 -37 130 -37 89 0 141 18 149 53 8 29 0 415 -8 423 -3 3 3 14 14 25 22 22 26 78 7 97 -10 10 -7 18 15 38 17 16 27 35 27 54 0 22 5 29 21 32 27 4 44 30 35 53 -5 14 -14 16 -44 11 -61 -9 -508 -19 -500 -11 15 16 255 36 468 39 128 2 243 9 268 15 56 16 74 45 77 127 2 45 8 70 20 84 26 29 15 183 -15 215 -15 15 -22 41 -27 88 -3 37 -11 74 -17 83 -18 23 -77 33 -247 40 l-156 7 -6 126 c-3 69 -13 158 -23 196 -14 58 -17 135 -19 450 -3 384 -10 532 -45 1020 -14 185 -18 317 -14 420 7 202 4 192 62 200 175 24 344 65 374 92 17 15 27 95 30 228 3 97 -8 133 -46 156 -28 16 -34 27 -38 62 -3 23 -12 59 -21 80 -21 48 -57 64 -187 79 -79 10 -100 16 -100 28 0 21 -20 40 -42 40 -15 0 -17 3 -8 19 15 29 12 61 -6 68 -12 4 -14 14 -9 39 4 26 2 36 -12 45 -13 7 -18 22 -17 50 1 21 -2 107 -7 191 -11 191 -12 192 -132 195 -45 0 -92 -1 -103 -3z m166 -54 c11 -7 2 -10 -32 -10 -47 0 -63 -12 -32 -24 9 -3 31 -6 49 -6 61 0 53 -32 -8 -34 -46 -2 -44 -23 2 -31 23 -4 41 -11 41 -16 0 -5 0 -12 0 -16 0 -4 -16 -6 -35 -4 -49 4 -46 -22 4 -38 21 -6 42 -18 45 -26 4 -12 -4 -15 -39 -15 -58 0 -62 -25 -6 -34 21 -3 41 -13 45 -21 4 -12 -4 -15 -45 -15 -60 0 -64 -21 -5 -31 75 -12 60 -26 -36 -32 -51 -4 -103 -9 -116 -13 -20 -6 -22 -3 -20 23 1 16 -2 35 -6 42 -5 8 -4 16 4 21 8 5 10 15 5 26 -11 27 -14 100 -5 115 5 7 3 20 -3 31 -9 14 -9 23 2 39 10 17 10 23 0 29 -21 13 -2 38 33 43 66 8 143 6 158 -3z m39 -401 c18 -6 31 -18 31 -27 0 -14 -12 -17 -72 -17 -40 0 -103 -4 -140 -8 -64 -7 -68 -6 -68 13 0 11 1 20 3 20 1 0 20 7 42 15 48 17 160 19 204 4z m40 -95 c2 -2 -29 -4 -70 -4 -54 0 -81 -5 -99 -17 -26 -18 -130 -35 -130 -21 0 20 57 41 128 48 69 7 160 3 171 -6z m11 -94 c14 -5 -44 -8 -140 -7 -115 0 -145 2 -100 7 93 9 211 9 240 0z m145 -70 c136 -13 171 -24 189 -58 15 -30 28 -92 20 -92 -3 0 -40 9 -82 19 -234 59 -622 43 -843 -34 -23 -8 -43 -15 -45 -15 -13 0 -1 81 14 98 30 36 197 71 387 82 188 11 242 11 360 0z m51 -175 c114 -20 190 -42 209 -61 15 -16 22 -114 8 -114 -5 0 -37 9 -73 21 -249 78 -714 58 -943 -40 -27 -12 -53 -21 -58 -21 -15 0 -11 107 6 123 27 28 188 74 335 96 98 15 419 12 516 -4z m-348 -152 c-10 -2 -28 -2 -40 0 -13 2 -5 4 17 4 22 1 32 -1 23 -4z m308 -48 c87 -8 183 -20 212 -26 l52 -10 0 -51 0 -51 -32 6 c-18 3 -67 14 -108 23 -60 14 -124 18 -320 18 -228 0 -255 -2 -382 -27 -75 -15 -155 -34 -178 -42 -23 -8 -46 -12 -51 -9 -5 3 -9 25 -9 50 0 53 1 54 160 90 191 43 407 52 656 29z m-6 -135 c126 -15 192 -30 187 -43 -2 -8 -115 -47 -138 -47 -4 0 -9 10 -13 23 -3 13 -17 29 -31 35 -38 17 -340 15 -445 -3 -239 -40 -235 -39 -199 -66 28 -22 20 -23 -72 -8 -114 19 -91 34 110 75 203 40 437 54 601 34z m-32 -77 c-16 -2 -40 -2 -55 0 -16 2 -3 4 27 4 30 0 43 -2 28 -4z m-548 -23 c0 -11 -4 -20 -9 -20 -14 0 -23 18 -16 30 10 17 25 11 25 -10z m398 -222 c-2 -166 4 -380 20 -673 13 -236 27 -601 32 -810 6 -269 13 -401 24 -453 8 -40 18 -118 22 -172 l7 -100 -69 0 c-38 0 -79 -3 -91 -6 l-23 -6 0 193 c0 107 -4 264 -10 349 -5 85 -17 315 -25 510 -33 744 -45 987 -54 1055 -5 39 -12 132 -16 207 l-7 137 83 4 c46 1 90 4 97 5 11 2 13 -42 10 -240z m-252 205 c-7 -7 -98 -5 -105 3 -2 2 22 4 54 4 32 0 55 -3 51 -7z m317 -2450 c-23 -2 -64 -2 -90 0 -26 2 -7 3 42 3 50 0 71 -1 48 -3z m455 -118 l3 -50 -173 -3 c-157 -2 -570 -22 -792 -39 l-89 -6 5 52 c3 28 8 55 12 59 4 4 143 10 309 15 166 4 381 11 477 16 96 4 191 8 210 7 35 -1 35 -1 38 -51z m-670 -122 c-21 -2 -57 -2 -80 0 -24 2 -7 4 37 4 44 0 63 -2 43 -4z m716 -70 c14 -86 22 -80 -131 -87 -207 -9 -539 -26 -708 -36 -82 -5 -176 -6 -207 -3 l-58 6 0 68 0 69 78 1 c42 1 160 5 262 8 102 4 314 8 471 9 l286 2 7 -37z m-24 -207 c0 -30 -5 -58 -11 -62 -7 -4 -91 -11 -188 -16 -97 -5 -306 -18 -466 -28 -161 -11 -306 -16 -325 -12 -38 8 -46 27 -49 107 l-1 40 418 1 c229 1 449 6 487 12 39 5 85 10 103 11 l32 1 0 -54z m-335 -236 c-18 -7 -266 -31 -323 -30 -13 0 -22 5 -20 11 3 8 59 13 168 16 91 2 167 6 169 9 2 2 9 4 15 3 6 0 2 -4 -9 -9z m-145 -82 c14 -1 50 2 80 7 81 12 56 -2 -36 -20 -126 -24 -204 -19 -204 12 0 13 11 14 68 9 37 -4 78 -7 92 -8z m140 -74 c0 -32 -91 -50 -230 -45 -54 2 -73 12 -64 34 5 14 26 17 127 20 67 1 132 4 145 5 14 1 22 -3 22 -14z m-42 -86 c-3 -7 -23 -17 -46 -22 -54 -13 -48 -32 8 -28 54 4 51 -17 -4 -32 -50 -14 -47 -32 4 -29 33 1 40 -1 40 -17 0 -13 -10 -22 -32 -28 -17 -4 -34 -14 -36 -21 -4 -11 5 -13 37 -8 55 7 56 -19 1 -40 -22 -9 -40 -20 -40 -25 0 -4 18 -8 40 -8 28 0 40 -4 40 -15 0 -8 -16 -19 -40 -25 -52 -14 -51 -30 1 -30 51 0 48 -21 -4 -33 -48 -12 -48 -27 0 -27 27 0 34 -3 26 -11 -17 -17 -183 -25 -183 -9 0 7 -8 18 -17 25 -15 11 -15 13 5 19 27 9 28 23 2 31 -25 8 -26 31 -3 44 17 9 17 10 0 28 -20 23 -22 40 -5 45 9 3 8 13 -4 38 -15 30 -15 35 -1 45 13 10 13 13 -1 24 -19 16 -21 51 -4 51 9 0 9 3 0 12 -7 7 -12 20 -12 30 0 15 13 18 108 21 59 1 111 4 115 5 5 1 7 -4 5 -10z" fill="#ffffff"/>
<path d="M896 5391 c-7 -11 43 -21 105 -21 51 0 245 -27 260 -35 12 -8 22 16 11 27 -26 26 -362 52 -376 29z" fill="#ffffff"/>
<path d="M1046 5045 c-6 -16 -8 -15 173 -40 71 -10 117 -13 123 -7 15 15 -1 20 -103 36 -170 26 -187 27 -193 11z" fill="#ffffff"/>
<path d="M930 4696 c0 -86 8 -108 30 -81 16 20 1 156 -17 163 -10 3 -13 -18 -13 -82z" fill="#ffffff"/>
<path d="M917 4048 c4 -243 21 -562 35 -653 6 -38 11 -134 12 -213 1 -121 3 -142 16 -140 22 5 25 206 5 393 -9 83 -20 290 -25 461 -5 171 -12 318 -16 327 -3 10 -11 17 -18 17 -9 0 -11 -49 -9 -192z" fill="#ffffff"/>
<path d="M1018 1853 c-16 -2 -28 -8 -28 -13 0 -20 470 -33 477 -13 3 7 -6 14 -19 17 -32 7 -397 14 -430 9z" fill="#ffffff"/>
</g>
</svg>