<svg version="1.0" xmlns="http://www.w3.org/2000/svg" width="1216.000000pt" height="832.000000pt" viewBox="0 0 1216.000000 832.000000" preserveAspectRatio="xMidYMid meet">

<g transform="translate(0.000000,832.000000) scale(0.100000,-0.100000)" fill="#ffffff" stroke="none">
<path d="M11180 7031 c-30 -10 -103 -23 -162 -29 -89 -10 -116 -16 -162 -43 -192 -108 -290 -394 -266 -774 4 -55 6 -101 6 -102 -6 -9 -802 -176 -817 -171 -6 2 -22 30 -37 63 -124 276 -306 473 -548 591 -105 50 -164 59 -272 38 -48 -9 -121 -19 -162 -23 -41 -3 -100 -16 -130 -28 -30 -12 -77 -25 -103 -28 -33 -4 -58 -16 -81 -36 -19 -16 -39 -29 -45 -29 -18 0 -145 -65 -194 -99 -88 -60 -146 -151 -205 -326 -49 -143 -65 -256 -60 -427 3 -82 1 -148 -3 -148 -19 0 -39 -62 -39 -117 1 -99 57 -183 123 -183 23 0 31 -12 70 -92 107 -225 243 -376 421 -463 96 -48 235 -85 316 -85 36 0 108 -5 161 -12 123 -15 234 -1 316 40 32 16 96 42 143 57 115 38 214 88 238 122 56 80 118 249 153 413 17 83 21 138 21 263 0 86 2 157 5 157 3 0 130 32 282 71 473 121 505 129 512 121 4 -4 15 -32 24 -62 86 -263 279 -511 463 -593 120 -54 199 -57 342 -12 41 13 104 31 140 41 96 26 140 51 228 131 100 92 151 175 191 314 47 165 62 331 42 474 -5 41 -3 55 14 78 52 74 -6 285 -83 302 -23 5 -33 18 -55 68 -71 162 -234 362 -372 455 -130 88 -301 123 -415 83z m289 -56 c192 -90 362 -274 472 -511 133 -288 157 -622 64 -901 -30 -89 -81 -190 -91 -180 -2 2 5 30 16 63 52 149 73 404 49 581 -34 250 -139 508 -282 690 -65 84 -200 208 -264 245 -29 16 -53 32 -53 34 0 11 41 1 89 -21z m-124 -24 c255 -116 490 -458 571 -831 29 -132 26 -443 -4 -565 -39 -157 -101 -284 -156 -320 -27 -18 -116 -47 -116 -39 0 3 12 25 26 49 60 103 111 304 121 480 26 459 -229 1008 -556 1195 -33 19 -61 38 -61 42 0 4 10 9 23 11 54 11 92 5 152 -22z m-225 -15 c293 -119 557 -530 610 -948 22 -182 8 -426 -34 -569 -35 -117 -132 -279 -168 -279 -5 0 8 20 29 44 53 61 96 152 128 276 23 89 28 132 32 280 4 149 2 193 -16 300 -50 285 -165 515 -350 701 -98 98 -172 150 -254 179 -85 30 -176 24 -190 -13 -4 -11 4 -13 42 -9 215 20 518 -273 644 -624 111 -308 109 -712 -3 -952 -16 -35 -39 -75 -51 -90 -36 -47 -123 -112 -162 -123 -53 -14 -156 3 -225 38 -114 57 -264 225 -349 388 -40 78 -100 232 -92 239 2 2 53 15 112 30 l109 27 53 -27 c37 -17 61 -24 77 -19 91 28 133 103 126 225 -5 84 -27 137 -84 200 -49 54 -107 75 -159 58 -43 -14 -85 -65 -85 -104 0 -25 0 -26 -122 -52 -101 -23 -93 -30 -103 88 -14 162 29 391 103 552 45 97 83 138 167 179 75 36 134 38 215 5z m-1988 -387 c86 -29 240 -134 324 -221 178 -185 305 -455 349 -748 19 -123 19 -246 -1 -379 -19 -129 -35 -190 -82 -301 -64 -153 -85 -174 -222 -224 -19 -8 -44 -17 -54 -21 -13 -6 -7 8 21 46 76 100 126 217 160 371 26 119 26 438 -1 557 -68 315 -236 600 -456 774 -78 63 -218 137 -256 137 -34 0 -39 18 -7 23 77 11 167 6 225 -14z m-254 -55 c76 -20 214 -91 271 -139 195 -166 334 -425 403 -750 19 -93 23 -139 23 -300 0 -218 -14 -287 -90 -450 -76 -162 -157 -248 -260 -273 -59 -15 -135 -23 -135 -14 0 4 23 22 51 41 120 82 235 245 287 411 39 124 47 181 46 350 0 145 -4 178 -27 271 -32 123 -61 199 -123 319 -135 261 -390 485 -603 531 -49 11 -53 13 -31 20 31 10 114 2 188 -17z m-200 -30 c140 -28 242 -87 374 -217 168 -165 286 -396 342 -671 67 -324 -10 -655 -199 -855 -153 -162 -357 -201 -582 -111 -196 79 -379 259 -478 472 -31 65 -31 74 -2 82 40 11 45 7 94 -81 70 -128 198 -255 313 -312 106 -52 196 -69 283 -53 192 36 334 192 404 442 28 103 26 357 -5 469 -96 352 -381 624 -652 624 -96 0 -191 -30 -268 -87 -70 -52 -108 -98 -162 -199 -63 -116 -82 -191 -85 -336 -3 -124 -3 -125 -30 -139 -15 -7 -29 -11 -32 -8 -3 3 -6 76 -6 163 0 113 4 180 16 234 40 180 97 306 176 392 60 64 107 95 202 132 34 14 72 34 83 44 37 34 99 39 214 15z m3384 -135 c22 -43 35 -129 21 -129 -6 0 -15 17 -21 38 -5 20 -17 59 -25 85 -18 57 -2 61 25 6z m-3321 -183 c89 -31 174 -91 252 -178 124 -137 188 -290 209 -499 24 -234 -59 -474 -200 -582 -89 -68 -134 -82 -252 -81 -117 0 -180 18 -278 76 -67 41 -179 152 -239 237 l-44 64 58 -6 c45 -5 80 -1 156 19 l97 26 37 -32 c49 -44 92 -60 155 -60 132 1 223 100 244 265 19 154 -84 352 -219 420 -139 69 -298 -6 -339 -159 -13 -50 -7 -47 -133 -77 -27 -7 -62 -18 -77 -25 -15 -8 -30 -14 -33 -14 -13 0 6 211 25 280 50 175 137 278 280 332 71 26 218 23 301 -6z m2341 -33 c31 -34 42 -66 39 -118 -3 -70 -16 -76 -321 -150 -151 -37 -421 -102 -599 -146 -178 -43 -332 -79 -342 -79 -13 0 -19 7 -19 23 0 12 -11 65 -25 117 -13 52 -23 95 -22 96 3 4 239 58 647 149 212 47 426 96 475 109 119 32 136 32 167 -1z m-2375 -342 c52 -26 105 -86 144 -163 27 -53 33 -77 37 -149 5 -102 -12 -164 -59 -222 -45 -55 -128 -82 -183 -61 -21 8 -10 24 17 24 34 0 95 49 116 94 71 148 0 355 -144 422 -54 26 -100 30 -155 14 l-35 -9 33 28 c18 16 48 33 65 39 43 15 117 7 164 -17z m-71 -150 c46 -28 84 -111 84 -183 0 -62 -14 -101 -49 -132 -28 -26 -36 -15 -21 30 25 75 -17 226 -76 273 -13 10 -24 22 -24 25 0 13 57 5 86 -13z m-102 -52 c39 -34 76 -119 76 -175 0 -50 -25 -104 -48 -104 -10 0 -52 -11 -92 -25 -92 -31 -115 -33 -100 -6 5 11 10 49 10 85 0 71 -35 164 -71 190 -16 11 -7 16 79 38 53 15 100 27 104 27 4 1 23 -13 42 -30z m-269 -90 c19 -17 35 -36 35 -43 -1 -6 -9 -1 -19 11 -10 12 -33 31 -52 42 -21 13 -28 21 -17 21 10 0 33 -14 53 -31z m-48 -11 c41 -28 83 -109 83 -160 0 -65 -27 -82 -158 -102 -120 -19 -154 -14 -100 12 41 21 54 55 39 107 -18 64 -42 89 -90 89 -39 1 -60 16 -23 16 9 1 55 14 102 29 105 36 106 36 147 9z m-187 -117 c5 -11 10 -36 10 -55 0 -51 -25 -47 -39 7 -7 23 -15 48 -17 55 -9 20 34 14 46 -7z m-50 -96 c-1 -5 -7 -1 -15 9 -8 11 -15 36 -14 55 l0 36 15 -45 c7 -25 14 -49 14 -55z" fill="#ffffff"/>
<path d="M8568 6433 c-33 -8 -20 -33 17 -33 66 0 141 -22 245 -72 94 -45 114 -61 208 -154 95 -94 122 -116 122 -98 0 15 -73 104 -132 160 -86 83 -170 135 -264 166 -80 26 -165 39 -196 31z" fill="#ffffff"/>
<path d="M1525 5983 c-96 -6 -411 -44 -490 -59 -318 -60 -491 -144 -511 -248 -3 -19 -4 -75 -3 -125 5 -110 17 -130 115 -183 321 -175 881 -250 1514 -204 369 27 495 51 648 121 142 66 163 107 166 321 1 111 1 112 -30 150 -84 104 -368 192 -724 224 -104 9 -562 11 -685 3z m699 -48 c452 -46 736 -154 700 -267 -29 -91 -274 -188 -599 -237 -314 -47 -921 -34 -1305 28 -236 39 -460 140 -460 209 0 28 76 87 154 120 157 66 386 112 761 151 141 15 585 12 749 -4z m682 -426 c-3 -39 -13 -84 -22 -100 -30 -60 -166 -121 -344 -155 -217 -42 -874 -58 -1171 -29 -353 35 -647 118 -757 212 -27 23 -34 37 -39 81 l-6 54 72 -36 c142 -72 358 -122 661 -153 237 -25 824 -25 1000 0 155 22 301 52 382 78 76 25 189 82 207 103 8 9 16 16 19 16 3 0 2 -32 -2 -71z" fill="#ffffff"/>
<path d="M1563 5914 c-14 -6 -18 -33 -5 -35 4 0 117 -2 252 -3 247 -3 403 -17 640 -57 128 -22 253 -75 305 -129 25 -26 27 -33 17 -54 -53 -116 -424 -196 -917 -196 -497 0 -913 62 -1065 160 -75 48 -66 76 40 124 78 35 208 71 330 90 162 26 174 29 178 48 2 9 -6 22 -19 28 -47 26 -370 -37 -493 -95 -102 -48 -141 -121 -96 -178 97 -122 811 -230 1310 -197 495 32 749 114 767 247 4 32 0 45 -22 71 -51 61 -222 124 -427 158 -78 13 -185 17 -443 20 -187 2 -346 1 -352 -2z" fill="#ffffff"/>
<path d="M2298 5784 c-30 -16 -38 -53 -15 -73 44 -36 204 -37 248 -2 29 24 17 59 -27 77 -45 19 -171 18 -206 -2z m182 -34 c23 -15 3 -24 -53 -24 -62 -1 -110 11 -102 24 8 13 135 13 155 0z" fill="#ffffff"/>
<path d="M1713 5756 c-125 -24 -178 -77 -135 -135 44 -62 157 -86 362 -78 74 3 153 10 174 17 47 14 96 60 96 90 0 35 -53 75 -122 95 -84 23 -280 29 -375 11z m299 -56 c21 -6 50 -21 65 -34 23 -20 25 -26 15 -39 -41 -49 -325 -47 -439 3 -46 20 -52 30 -28 50 45 38 285 50 387 20z" fill="#ffffff"/>
<path d="M913 5700 c-36 -12 -57 -41 -48 -69 9 -30 63 -46 156 -46 71 0 91 3 108 19 34 31 27 64 -15 82 -46 19 -159 27 -201 14z m140 -41 c21 -5 35 -14 32 -18 -13 -23 -160 -19 -160 4 0 9 38 21 75 24 8 0 32 -4 53 -10z" fill="#ffffff"/>
<path d="M1361 5531 c-27 -7 -49 -36 -38 -48 5 -4 39 -9 78 -11 66 -4 99 6 99 29 0 22 -96 43 -139 30z" fill="#ffffff"/>
<path d="M871 4669 c-260 -30 -512 -159 -608 -310 -126 -201 -104 -469 68 -812 l59 -117 -63 -80 c-72 -90 -157 -255 -188 -362 -27 -94 -37 -311 -20 -428 15 -99 69 -261 118 -350 46 -84 126 -200 158 -230 29 -28 32 -40 8 -40 -26 0 -83 -37 -83 -53 0 -54 165 -98 459 -122 534 -44 1156 21 1156 120 0 14 -15 27 -47 43 l-47 24 25 26 c14 15 46 58 71 97 141 212 210 493 183 742 -6 59 -11 117 -11 127 0 10 -6 31 -13 45 -8 14 -11 40 -9 58 4 25 0 36 -20 53 -15 13 -28 38 -32 60 -3 20 -17 50 -31 66 -31 37 -94 136 -94 148 0 5 25 58 55 117 150 293 184 482 120 670 -79 232 -251 374 -560 464 -171 50 -444 68 -654 44z m407 -44 c93 -7 246 -40 337 -72 162 -59 313 -180 375 -302 50 -100 64 -155 63 -261 0 -151 -43 -290 -173 -551 -39 -79 -75 -160 -81 -181 -5 -21 -16 -38 -23 -38 -21 0 -264 166 -308 211 -17 17 -14 21 47 74 45 40 70 55 82 51 15 -5 32 12 77 76 32 45 70 105 84 135 14 29 30 53 34 53 14 0 -2 -52 -42 -132 -44 -89 -32 -109 18 -30 99 153 131 302 97 437 -40 154 -129 258 -266 308 -113 43 -401 72 -640 65 -144 -4 -174 -8 -249 -33 -121 -39 -171 -67 -223 -125 -62 -69 -82 -130 -81 -250 1 -94 15 -156 33 -146 5 3 7 42 4 86 -7 94 7 107 25 22 12 -59 65 -171 122 -257 113 -172 136 -205 140 -202 3 1 48 23 100 49 124 62 189 78 321 78 115 0 234 -27 324 -73 l44 -22 -40 -33 c-30 -25 -43 -31 -53 -23 -57 47 -371 62 -511 23 -133 -37 -319 -137 -384 -206 -14 -14 -28 -26 -32 -26 -14 0 -180 349 -213 450 -93 281 -54 500 116 655 122 110 321 178 572 195 108 7 154 6 304 -5z m18 -296 c261 -22 369 -88 410 -251 14 -52 15 -76 5 -141 -12 -90 -50 -190 -98 -264 l-34 -52 -67 30 c-125 56 -194 71 -363 76 -173 6 -263 -7 -364 -52 -38 -17 -62 -22 -69 -16 -22 18 -104 185 -132 266 -34 102 -38 211 -10 269 24 48 84 92 153 112 108 31 356 41 569 23z m-1 -875 c52 -7 65 -15 218 -146 125 -107 179 -170 228 -268 81 -163 88 -357 20 -521 -45 -107 -137 -234 -221 -307 -137 -117 -236 -151 -465 -159 -182 -7 -235 3 -355 63 -206 103 -340 328 -340 571 0 359 224 649 572 743 138 37 209 42 343 24z m-858 -124 c11 -17 8 -24 -22 -57 -39 -41 -142 -210 -175 -285 -44 -100 -62 -196 -62 -338 -1 -122 2 -143 27 -215 68 -198 220 -399 329 -435 57 -18 238 -30 536 -37 246 -5 324 -3 470 12 l174 18 43 40 c88 81 186 258 223 402 31 116 37 279 16 385 -25 123 -63 230 -111 315 l-43 75 21 40 c12 22 25 40 28 40 10 0 74 -100 110 -171 68 -136 103 -366 80 -530 -38 -264 -137 -474 -298 -630 -120 -117 -136 -124 -293 -146 -195 -26 -600 -25 -759 1 -110 18 -116 21 -170 66 -146 122 -249 267 -347 485 -108 243 -96 536 31 770 45 82 149 215 169 215 6 0 17 -9 23 -20z" fill="#ffffff"/>
<path d="M850 4543 c-83 -10 -151 -28 -195 -50 -68 -35 -43 -40 52 -10 43 14 96 28 118 31 66 11 88 37 25 29z" fill="#ffffff"/>
<path d="M1649 1976 c-14 -14 -395 -66 -484 -66 -32 0 -44 -4 -39 -11 11 -19 342 -5 436 19 75 18 108 35 108 53 0 9 -13 12 -21 5z" fill="#ffffff"/>
</g>
</svg>