<svg version="1.0" xmlns="http://www.w3.org/2000/svg" width="1216.000000pt" height="832.000000pt" viewBox="0 0 1216.000000 832.000000" preserveAspectRatio="xMidYMid meet">

<g transform="translate(0.000000,832.000000) scale(0.100000,-0.100000)" fill="#ffffff" stroke="none">
<path d="M783 8160 c-37 -22 -43 -43 -46 -172 -2 -85 -3 -88 -28 -97 -19 -7 -28 -18 -33 -44 l-6 -34 -101 -12 c-103 -13 -257 -49 -296 -70 -13 -6 -27 -19 -32 -29 -8 -15 -26 -120 -34 -198 -2 -18 -11 -39 -20 -49 -13 -12 -17 -34 -17 -88 0 -94 6 -114 38 -123 15 -4 142 -10 282 -13 l255 -6 8 -60 c4 -33 9 -157 11 -275 2 -118 7 -279 11 -357 13 -247 -21 -1574 -41 -1628 -4 -8 -78 -14 -260 -18 -140 -4 -263 -11 -273 -16 -14 -8 -20 -27 -25 -92 -7 -72 -5 -85 12 -108 13 -19 21 -51 26 -116 9 -120 26 -153 96 -187 53 -26 217 -58 301 -58 43 0 54 -8 66 -45 5 -16 19 -34 30 -39 22 -10 33 -62 33 -164 0 -77 24 -98 122 -107 94 -9 155 1 183 29 18 18 23 38 29 120 4 54 5 101 2 104 -3 3 8 13 24 23 23 14 30 26 30 49 0 33 -5 32 130 50 111 15 219 47 247 72 29 27 40 65 48 168 4 47 12 91 17 97 12 14 7 187 -5 200 -13 12 -153 21 -348 22 l-177 1 -7 148 c-4 81 -4 194 0 252 4 58 9 513 10 1012 2 498 6 911 9 917 5 7 68 11 184 12 186 0 316 9 329 23 10 9 10 172 0 236 -3 25 -10 78 -15 119 -8 62 -14 79 -36 98 -33 28 -126 57 -231 72 -44 7 -94 14 -111 17 -27 4 -33 10 -38 40 -5 24 -14 38 -30 44 -26 10 -36 56 -36 170 0 81 -16 107 -75 120 -72 17 -176 12 -212 -10z m224 -54 c1 -1 5 -25 9 -54 l7 -53 -114 3 c-112 3 -114 4 -117 27 -2 13 -1 38 2 55 l6 31 102 -3 c57 -2 104 -5 105 -6z m0 -161 c3 -9 4 -17 2 -19 -2 -2 -52 -6 -112 -8 -92 -3 -107 -1 -107 13 0 26 10 29 112 29 80 0 100 -3 105 -15z m71 -122 c3 -10 -36 -13 -172 -13 -151 0 -176 2 -176 15 0 13 23 15 172 13 126 -2 172 -6 176 -15z m210 -112 c161 -24 184 -34 193 -81 4 -19 7 -36 5 -37 -1 -1 -22 3 -46 8 -280 64 -733 73 -1025 19 -60 -11 -115 -20 -120 -20 -6 0 -9 19 -7 45 4 42 6 45 40 54 37 10 181 28 277 35 136 10 554 -4 683 -23z m-93 -127 c199 -27 323 -60 303 -79 -3 -4 -80 1 -171 9 -215 21 -708 21 -902 1 -77 -8 -143 -15 -147 -15 -5 0 -8 8 -8 18 0 21 40 33 195 58 222 35 503 38 730 8z m120 -118 c55 -8 124 -20 153 -26 l52 -12 0 -59 c0 -41 -4 -59 -12 -59 -7 0 -73 9 -147 20 -353 52 -644 47 -1083 -16 l-48 -7 0 61 c0 33 4 63 9 67 17 10 215 36 341 45 173 12 613 3 735 -14z m-318 -263 c-4 -38 -7 -130 -7 -205 l0 -138 -84 0 -84 0 -6 108 c-3 59 -9 151 -12 205 l-6 97 102 0 103 0 -6 -67z m-108 -890 c1 -280 3 -557 6 -618 2 -60 7 -163 10 -227 l6 -118 -41 0 -40 0 5 728 c3 400 6 730 5 735 0 4 11 7 25 7 l24 0 0 -507z m82 495 c2 -7 2 -310 -1 -673 -3 -451 -7 -624 -13 -545 -8 119 -26 880 -22 938 1 17 3 91 4 162 1 104 4 130 15 130 8 0 15 -6 17 -12z m9 -1720 l0 -228 -101 0 -101 0 6 28 c3 15 8 86 11 157 6 117 14 270 15 270 0 0 38 0 85 0 l85 0 0 -227z m-624 -292 c291 -41 819 -41 1059 -1 50 8 93 15 98 15 4 0 7 -27 7 -59 0 -69 12 -63 -172 -87 -254 -32 -863 -28 -1028 7 -99 21 -90 12 -90 85 0 36 4 63 8 60 4 -2 58 -12 118 -20z m1134 -180 c0 -22 -7 -25 -102 -44 -161 -33 -284 -43 -550 -43 -370 0 -591 33 -574 86 4 13 62 12 225 -4 166 -17 748 -9 886 12 50 8 96 15 103 16 6 0 12 -10 12 -23z m-1095 -112 c133 -29 290 -44 456 -44 199 0 332 12 494 45 66 14 123 25 127 25 9 0 10 -36 2 -68 -18 -64 -169 -86 -589 -87 -309 0 -405 6 -537 36 -49 11 -52 14 -64 83 -7 38 -6 39 17 32 13 -3 56 -13 94 -22z m665 -235 c0 -5 -35 -10 -77 -10 -43 -1 -91 -2 -108 -2 -16 0 -52 1 -80 2 -44 3 -47 4 -20 11 44 10 285 10 285 -1z m-40 -174 c0 -61 -2 -66 -26 -75 -14 -6 -58 -10 -99 -10 -93 0 -105 10 -105 91 l0 59 115 0 115 0 0 -65z" fill="#ffffff"/>
<path d="M10360 7325 c-353 -56 -600 -207 -712 -435 -63 -128 -78 -185 -85 -315 -6 -122 9 -240 50 -381 l24 -82 -45 -68 c-58 -90 -117 -218 -149 -324 -37 -123 -43 -327 -15 -457 39 -175 116 -316 250 -456 157 -164 384 -276 682 -337 288 -58 602 -25 835 90 128 62 182 111 289 260 127 175 215 374 247 556 16 90 6 321 -16 394 -28 92 -75 191 -131 277 l-53 82 20 58 c31 90 69 315 69 406 -1 411 -259 670 -734 736 -105 15 -422 12 -526 -4z m545 -76 c61 -10 148 -32 195 -49 172 -64 348 -198 405 -309 27 -55 48 -182 43 -267 l-3 -59 -85 3 c-47 2 -102 5 -122 8 -33 5 -37 8 -28 24 19 36 11 112 -19 175 -52 109 -138 177 -281 223 -121 39 -181 46 -355 46 -257 -1 -414 -28 -540 -91 -74 -38 -112 -72 -154 -138 -50 -80 -62 -112 -65 -176 l-3 -53 -119 -18 c-65 -9 -125 -17 -133 -18 -11 0 -12 14 -7 75 18 197 102 327 296 459 252 170 597 228 975 165z m30 -303 c208 -46 303 -156 292 -340 -4 -69 -6 -77 -45 -122 -23 -27 -50 -60 -60 -74 l-20 -24 -88 41 c-119 56 -178 66 -379 66 -192 0 -296 -15 -428 -64 -124 -46 -115 -47 -176 28 -47 57 -55 73 -59 117 -5 65 20 168 54 219 57 87 206 142 454 167 119 12 371 4 455 -14z m-1025 -449 c0 -14 90 -150 119 -180 18 -18 20 -18 67 6 156 79 447 116 671 87 88 -12 206 -48 301 -91 36 -16 66 -29 68 -29 10 0 135 156 149 185 12 26 22 35 41 35 33 0 197 -31 206 -39 9 -8 -15 -110 -59 -252 l-36 -117 38 -48 c53 -70 112 -197 129 -279 49 -239 19 -550 -71 -729 -121 -241 -299 -396 -533 -466 -202 -60 -591 -52 -826 16 -136 39 -299 128 -382 208 -115 110 -226 321 -269 510 -25 110 -22 292 5 391 38 136 101 272 168 361 22 30 22 33 8 79 -21 71 -66 316 -59 323 6 7 196 40 238 41 16 1 27 -4 27 -12z" fill="#ffffff"/>
<path d="M10445 7109 c-180 -17 -361 -70 -448 -132 -60 -43 -114 -109 -148 -182 -32 -66 -37 -106 -15 -124 18 -15 28 -1 50 68 70 218 310 325 731 325 121 0 192 -6 293 -23 74 -12 136 -20 139 -17 14 13 -10 36 -49 47 -148 39 -371 55 -553 38z" fill="#ffffff"/>
<path d="M11326 6458 c-50 -82 -96 -163 -96 -173 0 -15 21 -35 36 -35 14 0 60 78 95 158 19 45 20 55 8 63 -21 13 -27 11 -43 -13z" fill="#ffffff"/>
<path d="M9816 6461 c-12 -18 73 -221 92 -221 4 0 17 7 30 15 l22 16 -50 99 c-38 75 -55 100 -70 100 -10 0 -21 -4 -24 -9z" fill="#ffffff"/>
<path d="M11310 5998 c0 -7 19 -29 43 -50 l42 -37 -32 -1 c-45 0 -43 -24 5 -54 20 -13 44 -31 52 -41 14 -17 13 -18 -14 -11 -80 20 -86 20 -86 -3 0 -12 8 -24 18 -27 53 -17 107 -44 110 -54 3 -7 -1 -10 -9 -7 -118 48 -165 16 -54 -37 29 -13 56 -29 59 -35 11 -18 -14 -22 -36 -7 -28 20 -52 20 -68 1 -17 -20 3 -45 36 -45 33 0 30 -9 -16 -54 -26 -25 -40 -47 -38 -59 5 -36 26 -30 81 22 30 28 57 51 61 51 23 0 -9 -45 -74 -104 -81 -75 -97 -98 -75 -116 17 -14 41 -2 96 47 41 37 58 39 40 6 -8 -17 -35 -40 -168 -148 -16 -14 -22 -26 -18 -38 13 -33 44 -20 153 66 8 6 12 6 12 -2 0 -18 -63 -82 -139 -141 -51 -40 -70 -61 -68 -75 3 -29 40 -22 99 20 26 19 48 31 48 26 0 -16 -73 -97 -102 -115 -34 -21 -36 -36 -5 -36 85 0 186 162 233 375 23 106 23 322 0 420 -30 127 -64 202 -109 240 -41 35 -77 46 -77 23z" fill="#ffffff"/>
<path d="M9624 5389 c15 -152 82 -327 170 -444 102 -137 356 -272 586 -311 263 -44 607 18 824 149 73 44 136 96 136 113 0 21 -8 18 -89 -31 -168 -101 -331 -140 -551 -132 -194 7 -377 55 -610 161 -41 19 -83 37 -94 40 -15 5 -16 9 -5 22 10 12 9 18 -4 32 -15 14 -24 15 -78 3 -34 -7 -64 -9 -67 -6 -4 4 8 19 27 34 23 19 32 33 28 45 -8 19 -20 20 -70 2 -36 -13 -39 -13 -46 7 -7 18 -3 24 20 34 52 22 25 67 -34 56 -24 -5 -29 -1 -42 31 -14 34 -57 180 -69 239 -4 16 -13 27 -22 27 -14 0 -16 -10 -10 -71z m346 -457 c0 -5 -9 -17 -20 -27 -16 -15 -23 -16 -33 -6 -9 10 -8 15 7 27 22 16 46 19 46 6z m88 -68 c26 -7 30 -42 6 -51 -19 -7 -59 30 -50 46 8 13 12 13 44 5z m143 -64 c21 -12 25 -35 8 -45 -18 -12 -59 4 -59 24 0 32 17 39 51 21z m133 -46 c18 -7 22 -39 6 -49 -20 -12 -50 6 -50 31 0 24 13 30 44 18z m165 -48 c46 -17 24 -30 -34 -21 -33 4 -43 10 -38 21 6 17 26 17 72 0z" fill="#ffffff"/>
<path d="M1300 3033 c-94 -10 -212 -38 -297 -70 -199 -74 -323 -169 -391 -300 -52 -101 -71 -174 -79 -303 -9 -164 38 -355 121 -484 l37 -58 -29 -46 c-109 -175 -136 -259 -136 -427 -1 -231 71 -390 277 -614 97 -105 160 -157 234 -195 139 -70 256 -97 443 -103 134 -5 153 -3 244 21 232 62 403 186 582 421 112 148 166 310 167 505 2 169 -36 280 -148 440 l-53 76 63 129 c79 161 109 263 108 365 -5 286 -240 505 -648 606 -145 35 -360 51 -495 37z m435 -101 c141 -39 200 -62 305 -122 169 -97 257 -189 300 -314 23 -68 25 -170 6 -251 -11 -46 -14 -50 -39 -48 -14 1 -53 14 -86 28 l-59 27 20 45 c43 96 9 231 -79 320 -118 119 -394 194 -663 180 -354 -20 -558 -115 -644 -302 -27 -58 -33 -163 -11 -204 9 -18 15 -34 13 -35 -2 -2 -40 -16 -86 -31 -62 -22 -85 -26 -94 -17 -7 7 -11 57 -12 139 0 148 18 216 84 312 145 212 411 316 785 306 128 -3 166 -8 260 -33z m90 -225 c139 -40 250 -109 287 -180 26 -49 30 -159 9 -217 -8 -20 -48 -67 -95 -112 l-81 -76 -86 42 c-100 49 -162 65 -280 73 -156 10 -335 -31 -493 -115 l-68 -37 -45 50 c-132 145 -137 153 -141 219 -3 56 -1 66 35 124 53 87 106 138 183 177 134 67 190 75 490 70 166 -2 250 -7 285 -18z m-925 -589 c80 -99 94 -107 146 -80 49 25 208 77 295 97 202 46 421 19 592 -73 l48 -26 75 78 76 78 66 -29 c37 -17 77 -34 89 -39 22 -9 21 -10 -29 -114 -28 -57 -51 -117 -51 -131 0 -15 21 -59 46 -99 50 -79 100 -198 118 -282 18 -81 6 -287 -21 -373 -96 -306 -331 -513 -660 -581 -110 -23 -141 -25 -255 -21 -214 9 -326 44 -465 148 -126 93 -249 274 -310 457 -28 81 -34 116 -37 212 -7 180 27 304 112 403 19 22 35 48 35 58 0 9 -15 42 -34 74 -35 58 -96 212 -96 243 0 12 24 26 83 48 45 17 89 32 97 32 8 0 44 -36 80 -80z" fill="#ffffff"/>
<path d="M1280 2943 c-151 -18 -393 -123 -465 -203 -38 -43 0 -38 80 9 98 58 214 104 320 126 80 16 270 34 334 31 42 -1 52 20 16 34 -25 10 -211 11 -285 3z" fill="#ffffff"/>
<path d="M2226 2413 c2 -119 9 -138 39 -113 11 9 15 33 14 84 0 81 -17 139 -40 144 -13 2 -15 -13 -13 -115z" fill="#ffffff"/>
<path d="M1980 1890 c0 -14 7 -20 21 -20 11 0 29 -5 41 -11 l20 -11 -21 -14 c-37 -26 -26 -44 27 -44 l47 -1 -27 -20 c-49 -36 -23 -78 27 -45 36 24 34 -6 -2 -32 -21 -16 -25 -24 -17 -32 9 -9 19 -8 43 4 37 20 39 11 6 -34 -29 -39 -24 -54 16 -46 36 7 37 -5 4 -40 -41 -44 -25 -71 26 -44 28 15 24 3 -16 -43 -19 -22 -35 -47 -35 -54 0 -18 26 -16 55 3 35 23 31 9 -13 -45 -21 -25 -41 -54 -45 -63 -10 -29 9 -30 42 -2 45 37 38 17 -14 -43 -25 -28 -45 -56 -45 -62 0 -7 -7 -22 -16 -35 -24 -38 0 -40 40 -5 49 42 45 27 -9 -42 -25 -32 -45 -64 -45 -73 0 -26 30 -18 61 15 16 17 29 27 29 22 0 -16 -86 -126 -131 -169 -97 -92 -303 -186 -493 -224 -155 -32 -347 -23 -482 22 -5 2 -11 -1 -13 -7 -8 -17 84 -55 180 -75 195 -41 376 -23 558 54 249 105 399 262 473 496 19 63 23 95 22 200 0 106 -4 137 -26 202 -48 144 -140 278 -219 318 -49 25 -69 25 -69 0z m240 -660 c-6 -11 -13 -20 -16 -20 -2 0 0 9 6 20 6 11 13 20 16 20 2 0 0 -9 -6 -20z" fill="#ffffff"/>
<path d="M10770 2965 c-230 -33 -383 -78 -519 -152 -103 -56 -169 -120 -212 -208 -29 -60 -31 -70 -27 -147 4 -67 10 -94 35 -143 107 -207 427 -348 853 -375 534 -34 995 120 1125 376 27 52 30 69 30 149 0 81 -3 95 -29 143 -88 158 -320 287 -616 343 -148 28 -495 35 -640 14z m595 -49 c190 -38 379 -108 465 -171 56 -41 113 -102 134 -144 26 -49 21 -120 -12 -172 -152 -239 -732 -342 -1337 -238 -253 43 -454 148 -506 264 -20 44 -25 119 -9 159 26 70 144 158 285 213 116 45 290 86 440 104 111 12 448 3 540 -15z m-1154 -687 c83 -65 316 -146 503 -174 170 -25 549 -19 686 11 19 4 22 3 14 -6 -18 -18 -173 -39 -349 -46 -196 -8 -386 7 -516 41 -110 30 -297 119 -353 170 -49 43 -38 46 15 4z m219 -43 c46 -15 156 -39 245 -53 133 -21 196 -26 370 -27 116 0 244 2 285 6 51 4 65 4 45 -3 -43 -13 -243 -29 -360 -29 -116 0 -339 22 -440 44 -125 27 -302 97 -320 126 -4 6 15 0 41 -13 27 -14 87 -37 134 -51z m1246 -15 c-8 -12 -94 -41 -120 -40 -17 0 29 18 122 48 2 1 1 -3 -2 -8z" fill="#ffffff"/>
<path d="M10855 2904 c-96 -14 -201 -40 -294 -71 -174 -58 -267 -112 -316 -182 -32 -47 -25 -72 8 -27 32 44 156 120 251 155 93 33 268 66 412 76 159 11 468 -27 624 -77 141 -45 271 -132 286 -193 8 -32 24 -33 24 -2 0 40 -77 135 -146 180 -58 39 -207 93 -320 117 -77 17 -143 22 -299 25 -110 2 -213 1 -230 -1z" fill="#ffffff"/>
<path d="M10917 2680 c-101 -26 -157 -77 -157 -144 0 -53 20 -80 79 -110 134 -68 355 -51 441 35 24 25 30 39 30 74 0 93 -91 147 -255 151 -55 2 -117 -1 -138 -6z m281 -78 c76 -37 81 -47 46 -83 -42 -44 -116 -62 -234 -57 -79 3 -106 8 -146 29 -42 21 -49 30 -49 54 0 84 251 122 383 57z" fill="#ffffff"/>
<path d="M10240 2401 c0 -16 82 -77 145 -109 296 -148 917 -171 1232 -46 96 38 166 84 151 99 -2 3 -20 -4 -40 -15 -53 -28 -181 -68 -289 -90 -410 -82 -944 -15 -1155 146 -33 26 -44 29 -44 15z" fill="#ffffff"/>
</g>
</svg>