<svg version="1.0" xmlns="http://www.w3.org/2000/svg" width="1216.000000pt" height="832.000000pt" viewBox="0 0 1216.000000 832.000000" preserveAspectRatio="xMidYMid meet">

<g transform="translate(0.000000,832.000000) scale(0.100000,-0.100000)" fill="#ffffff" stroke="none">
<path d="M2517 7532 c-29 -32 -59 -190 -88 -461 l-12 -113 -36 6 c-138 21 -301 37 -451 44 -179 7 -552 1 -695 -12 l-81 -8 -12 144 c-6 79 -21 188 -32 243 -31 149 -38 155 -183 155 -109 0 -109 0 -138 -31 -27 -29 -32 -30 -78 -24 -27 4 -66 2 -89 -4 -33 -9 -43 -18 -53 -46 l-13 -35 -68 0 c-58 0 -72 -4 -92 -23 -25 -26 -78 -203 -98 -329 l-11 -77 -69 -7 c-38 -4 -75 -13 -83 -20 -19 -19 -29 -111 -18 -165 l8 -44 72 -10 c40 -5 77 -15 82 -20 6 -6 17 -53 26 -105 14 -81 24 -124 61 -253 13 -42 44 -57 121 -57 57 0 73 -3 73 -14 0 -8 12 -24 26 -35 22 -17 41 -21 110 -21 77 0 84 -2 101 -26 15 -20 31 -27 66 -31 72 -8 176 6 197 27 33 33 90 341 90 489 l0 54 303 -6 c375 -9 848 -26 903 -33 l41 -5 6 -157 c5 -146 26 -293 48 -334 16 -30 45 -38 148 -41 91 -2 101 0 123 21 19 17 36 22 77 22 41 0 57 5 75 23 19 19 34 23 88 24 97 0 100 3 141 150 20 70 41 157 47 193 18 106 13 100 86 100 58 0 65 2 73 23 14 35 23 180 13 194 -4 7 -39 20 -78 30 -38 9 -70 17 -71 17 -1 1 -14 87 -28 191 -15 105 -31 198 -36 207 -10 18 -56 34 -134 44 -30 5 -56 16 -71 31 -19 19 -33 23 -84 23 -57 0 -60 1 -60 24 0 39 -30 65 -89 76 -83 15 -135 13 -154 -8z m141 -40 c10 -7 9 -24 -3 -88 -71 -364 -83 -858 -30 -1176 4 -27 3 -28 -40 -28 -72 0 -91 12 -98 62 -22 149 -28 390 -18 649 13 325 43 521 88 572 17 18 78 23 101 9z m-1664 -53 c-40 -115 -60 -676 -34 -940 12 -124 38 -259 53 -277 8 -10 -8 -12 -84 -10 l-94 3 -6 105 c-4 58 -8 194 -9 302 -1 122 -7 219 -15 254 -15 63 -12 236 6 438 15 172 11 166 113 166 l84 0 -14 -41z m13 -91 c-17 -104 -20 -172 -21 -433 0 -322 13 -476 51 -622 10 -34 14 -65 10 -69 -12 -12 -16 -1 -31 82 -46 245 -61 711 -31 949 21 170 29 215 38 215 2 0 -5 -55 -16 -122z m1664 -108 c-18 -141 -26 -245 -35 -505 -2 -49 3 -187 10 -305 8 -118 13 -219 13 -225 -3 -31 -19 91 -30 230 -21 273 -4 641 43 940 22 137 21 32 -1 -135z m-1926 153 c-3 -16 -9 -170 -12 -343 -4 -301 2 -452 33 -732 l7 -58 -75 0 c-49 0 -79 4 -86 13 -15 18 -30 147 -43 380 -12 223 -5 479 17 629 8 54 14 100 14 102 0 3 7 12 16 20 11 11 34 16 76 16 l60 0 -7 -27z m2125 -25 c0 -7 -9 -64 -20 -127 -36 -209 -43 -347 -37 -690 l5 -324 -56 7 c-31 4 -58 9 -61 12 -26 26 6 1079 35 1125 9 15 134 11 134 -3z m-2330 -36 c0 -4 -9 -70 -20 -147 -11 -79 -23 -227 -26 -340 -6 -192 0 -283 33 -473 l5 -33 -63 3 -64 3 -7 50 c-11 71 -15 756 -5 838 11 88 29 107 97 107 28 0 50 -4 50 -8z m2483 -1 c21 -5 41 -11 43 -14 2 -2 -4 -46 -15 -98 -36 -178 -54 -390 -53 -639 1 -129 2 -248 4 -265 2 -23 -1 -29 -14 -29 -10 1 -35 2 -56 3 l-39 1 -11 93 c-30 237 -23 552 18 793 30 174 32 176 123 155z m59 -239 c-18 -129 -24 -223 -32 -490 l-7 -257 -1 250 c-2 244 7 404 30 535 15 88 23 58 10 -38z m-1297 -152 c263 -14 537 -31 583 -36 l43 -5 -7 -72 c-4 -40 -8 -74 -10 -75 -1 -2 -158 6 -349 18 -255 16 -417 21 -613 18 -312 -4 -302 -7 -302 90 0 32 3 62 7 65 9 10 456 8 648 -3z m-670 -85 c0 -61 -3 -85 -12 -85 -10 0 -13 24 -13 85 0 61 3 85 13 85 9 0 12 -24 12 -85z m-925 -20 c0 -43 -4 -75 -10 -75 -11 0 -14 133 -3 143 12 13 13 7 13 -68z m88 -2 c-3 -72 -5 -78 -23 -75 -39 6 -40 9 -37 81 l4 71 29 0 30 0 -3 -77z m2874 -20 c-2 -46 -8 -83 -13 -83 -10 0 -12 140 -3 165 13 34 20 -3 16 -82z m81 65 c-2 -5 -3 -39 -3 -78 0 -68 -1 -70 -25 -70 -24 0 -25 2 -25 64 0 80 6 98 34 94 11 -2 20 -6 19 -10z m-2441 -173 c3 -98 2 -147 -2 -115 -8 55 -13 297 -6 289 2 -2 6 -80 8 -174z m-430 -10 c3 -93 2 -156 -2 -140 -7 29 -13 322 -6 314 2 -2 6 -80 8 -174z m732 -134 c-4 -69 -10 -112 -12 -96 -5 38 10 266 16 241 2 -11 1 -76 -4 -145z" fill="#ffffff"/>
<path d="M707 7290 c-30 -69 -61 -597 -39 -670 8 -28 10 -8 11 105 1 153 15 341 32 450 11 71 9 144 -4 115z" fill="#ffffff"/>
<path d="M10500 4389 c-81 -10 -195 -37 -293 -70 -163 -56 -401 -211 -525 -343 -156 -168 -270 -396 -328 -661 -24 -110 -24 -398 0 -505 100 -441 362 -785 738 -967 199 -97 364 -136 578 -136 177 0 302 23 467 89 257 102 437 242 596 462 113 157 208 384 241 577 20 116 21 338 1 442 -43 227 -147 440 -307 630 -156 187 -348 315 -603 403 -220 76 -395 101 -565 79z m380 -72 c196 -50 366 -126 515 -228 75 -51 217 -189 286 -278 117 -151 214 -371 249 -568 16 -90 13 -304 -5 -398 -51 -271 -185 -530 -375 -723 -173 -177 -451 -315 -710 -353 -185 -27 -439 2 -601 67 -202 82 -330 164 -464 299 -142 142 -226 273 -308 480 -105 265 -107 623 -6 885 103 269 248 462 454 608 171 121 399 207 625 236 79 10 247 -4 340 -27z" fill="#ffffff"/>
<path d="M10446 4009 c-87 -21 -237 -88 -313 -140 -132 -89 -285 -253 -343 -368 -42 -84 -88 -244 -101 -351 -26 -217 32 -451 159 -637 62 -91 198 -221 295 -281 158 -98 315 -142 511 -142 137 0 215 12 332 51 309 101 541 379 614 734 25 120 26 211 6 345 -37 254 -157 454 -364 608 -141 104 -284 168 -432 191 -104 17 -274 12 -364 -10z m286 -43 c99 -9 252 -60 376 -128 189 -103 335 -290 418 -533 23 -69 27 -96 27 -200 0 -391 -239 -761 -570 -882 -227 -82 -429 -87 -628 -12 -297 111 -510 347 -591 656 -13 49 -18 105 -18 203 0 119 3 145 27 222 41 130 137 316 199 383 99 109 268 217 414 265 58 20 190 38 244 34 14 -1 59 -5 102 -8z m866 -933 c-18 -222 -126 -479 -272 -649 -101 -118 -304 -226 -479 -254 -62 -10 -92 -6 -41 5 184 41 278 78 379 150 77 54 163 143 218 225 91 133 174 370 184 523 3 48 9 87 12 87 4 0 3 -39 -1 -87z m-1453 -746 c145 -94 274 -142 413 -154 40 -3 69 -9 65 -13 -4 -4 -41 -4 -80 1 -154 17 -255 55 -394 148 -81 55 -95 66 -154 131 -32 35 -27 32 25 -15 36 -32 92 -76 125 -98z" fill="#ffffff"/>
<path d="M10459 3490 c-109 -44 -193 -123 -243 -229 -29 -62 -31 -72 -31 -186 0 -116 1 -123 34 -192 79 -168 248 -259 435 -232 96 13 160 45 237 117 78 72 125 164 141 272 29 193 -87 374 -286 449 -75 28 -220 29 -287 1z m274 -50 c162 -61 254 -202 245 -374 -8 -141 -79 -244 -216 -312 -71 -36 -83 -39 -162 -39 -77 0 -92 3 -154 34 -114 56 -182 145 -207 274 -26 126 31 286 130 363 107 84 236 103 364 54z" fill="#ffffff"/>
<path d="M10527 3346 c-165 -59 -238 -223 -169 -380 46 -103 140 -166 247 -166 87 0 127 15 185 67 59 53 83 95 99 174 25 119 -44 261 -146 305 -41 18 -166 17 -216 0z m178 -47 c55 -26 99 -69 126 -126 31 -65 24 -157 -17 -215 -70 -100 -172 -131 -286 -88 -120 45 -173 155 -134 283 19 65 50 103 109 137 65 37 135 40 202 9z" fill="#ffffff"/>
<path d="M1040 3554 c-128 -17 -192 -35 -289 -81 -136 -65 -244 -201 -271 -342 -25 -132 1 -344 65 -536 19 -57 35 -109 35 -115 0 -6 -24 -38 -52 -71 -167 -189 -249 -460 -213 -698 21 -140 66 -246 158 -371 67 -90 249 -280 288 -301 62 -31 261 -87 371 -103 275 -41 514 -4 737 115 116 62 161 97 219 174 114 152 212 476 198 658 -13 154 -107 365 -231 520 -30 37 -55 71 -55 76 0 5 17 38 39 73 128 211 169 365 136 515 -23 104 -65 190 -124 255 -97 106 -300 200 -501 233 -118 19 -366 18 -510 -1z m575 -58 c187 -48 360 -151 427 -253 45 -68 67 -134 75 -220 6 -69 -11 -173 -34 -200 -13 -17 -14 -16 -9 7 25 103 29 181 12 247 -18 74 -86 197 -100 183 -5 -5 -2 -19 7 -34 35 -53 67 -172 67 -249 0 -94 -43 -234 -100 -325 -22 -35 -40 -66 -40 -70 0 -4 -11 -24 -23 -46 l-24 -38 -59 48 c-90 73 -91 74 -69 87 52 29 108 95 148 175 38 78 42 92 42 161 0 91 -29 164 -94 234 -108 117 -353 184 -641 175 -128 -4 -156 -8 -240 -36 -52 -17 -115 -44 -140 -60 -59 -37 -113 -101 -130 -152 -13 -40 -26 -57 -36 -47 -10 10 45 116 81 156 81 89 241 148 433 158 114 6 142 16 75 27 -100 17 -323 -23 -427 -76 -173 -88 -251 -329 -174 -535 24 -66 64 -133 78 -133 13 0 13 55 0 99 -15 53 -4 49 25 -9 14 -28 45 -72 68 -97 39 -43 41 -46 23 -57 -11 -6 -57 -39 -104 -74 -46 -34 -86 -61 -87 -60 -2 2 -27 72 -55 157 -49 143 -53 162 -57 276 -7 141 4 198 53 297 49 97 131 181 218 223 136 65 318 95 546 90 137 -3 182 -8 265 -29z m-86 -197 c24 -5 60 -23 80 -38 20 -16 61 -41 91 -56 86 -43 104 -60 140 -126 30 -57 32 -66 28 -138 -7 -114 -51 -189 -154 -259 l-32 -22 -56 25 c-208 92 -443 97 -630 15 l-90 -40 -25 23 c-47 41 -62 62 -89 117 -23 48 -27 67 -27 155 0 86 3 107 24 150 54 108 120 152 281 186 97 20 384 26 459 8z m-848 -441 c11 -48 22 -96 26 -105 5 -14 3 -15 -7 -6 -22 20 -50 144 -48 213 1 43 3 51 5 25 2 -22 13 -79 24 -127z m1395 -112 c7 -17 -42 -115 -109 -220 -41 -64 -52 -75 -58 -60 -4 12 4 37 23 69 16 28 50 89 76 137 47 88 58 100 68 74z m-656 -66 c36 -6 97 -20 135 -32 57 -18 65 -23 42 -26 -45 -6 -26 -27 21 -24 47 4 62 -10 27 -26 -14 -7 -25 -16 -25 -22 0 -13 6 -13 40 5 18 9 31 11 35 5 3 -6 -1 -10 -9 -10 -9 0 -16 -7 -16 -15 0 -18 14 -19 42 -4 27 15 47 -3 28 -26 -17 -21 -4 -32 21 -17 28 18 45 5 24 -18 -9 -10 -15 -26 -13 -35 3 -15 6 -14 31 5 l28 22 22 -28 c12 -15 27 -34 33 -42 6 -9 20 -13 32 -10 19 5 20 3 15 -26 -6 -28 -5 -30 10 -17 9 7 17 24 17 37 0 30 11 31 28 3 11 -17 11 -31 1 -73 -6 -28 -18 -63 -26 -78 -27 -55 -33 -78 -20 -78 21 0 70 104 79 169 3 21 7 18 39 -30 62 -93 69 -107 99 -192 63 -179 64 -362 4 -567 -44 -152 -164 -305 -327 -418 -58 -40 -76 -48 -81 -37 -8 21 -29 19 -86 -10 -81 -41 -161 -55 -321 -55 -279 0 -446 50 -667 202 -39 27 -42 31 -26 42 11 9 15 19 10 31 -6 16 -8 17 -24 1 -10 -9 -21 -16 -25 -16 -8 0 -77 90 -77 101 0 5 9 9 20 9 11 0 20 4 20 9 0 10 -24 21 -48 21 -18 0 -72 77 -72 101 0 9 3 10 8 3 10 -16 48 -34 69 -34 14 1 10 8 -17 31 -77 66 -90 81 -90 105 0 24 1 24 30 9 36 -19 40 -19 40 0 0 8 -18 25 -40 37 -31 18 -40 29 -40 51 0 39 2 42 28 39 27 -3 31 24 4 32 -23 8 -47 50 -38 65 4 6 16 11 27 11 25 0 25 20 -1 27 -12 3 -20 14 -20 27 0 31 14 48 33 40 22 -8 23 19 2 36 -25 21 -19 50 10 50 29 0 31 7 10 31 -21 22 -10 69 16 69 20 0 27 26 8 32 -15 5 10 62 73 165 35 57 56 82 66 78 8 -3 38 17 72 47 191 172 465 256 710 218z" fill="#ffffff"/>
<path d="M2023 2229 c-14 -74 -64 -181 -132 -285 -51 -76 -59 -94 -43 -94 23 0 85 81 134 178 45 87 57 122 63 176 10 87 -7 106 -22 25z" fill="#ffffff"/>
<path d="M2064 2170 c4 -14 14 -40 23 -59 24 -53 28 -141 9 -198 -42 -127 -185 -309 -318 -406 -50 -36 -40 -55 14 -25 105 59 244 221 309 362 l28 61 1 -51 c0 -82 -18 -153 -61 -240 -110 -224 -381 -401 -641 -419 -107 -8 -130 -13 -122 -27 11 -17 185 0 283 28 163 47 290 122 384 228 52 58 114 161 143 236 24 65 28 89 28 180 0 145 -31 306 -66 337 -20 18 -21 17 -14 -7z" fill="#ffffff"/>
<path d="M2041 2046 c-12 -31 -21 -60 -21 -63 0 -16 -70 -115 -128 -180 -88 -100 -62 -108 34 -10 41 42 72 71 68 64 -41 -70 -111 -161 -154 -201 -36 -34 -49 -51 -41 -59 8 -8 36 15 98 79 66 66 101 113 140 184 29 53 56 111 59 130 7 33 6 34 -10 20 -10 -8 -22 -23 -27 -35 -9 -19 -9 -19 -5 0 3 11 11 39 18 62 9 31 9 46 1 54 -8 8 -17 -5 -32 -45z" fill="#ffffff"/>
<path d="M2011 1643 c-74 -121 -239 -266 -363 -317 -21 -9 -55 -23 -75 -31 -25 -11 -33 -19 -26 -26 14 -14 108 22 208 80 100 58 216 172 273 268 46 78 48 83 30 83 -7 0 -28 -26 -47 -57z" fill="#ffffff"/>
<path d="M1918 1311 c-140 -102 -324 -171 -508 -192 -115 -14 -123 -16 -114 -30 17 -28 254 10 383 62 124 51 321 173 321 200 0 17 -15 9 -82 -40z" fill="#ffffff"/>
<path d="M930 1130 c0 -12 91 -39 142 -43 65 -4 41 17 -39 35 -93 20 -103 21 -103 8z" fill="#ffffff"/>
<path d="M1180 1090 c0 -5 14 -10 30 -10 17 0 30 5 30 10 0 6 -13 10 -30 10 -16 0 -30 -4 -30 -10z" fill="#ffffff"/>
</g>
</svg>